<svg xmlns="http://www.w3.org/2000/svg" viewBox="0 0 64 64" role="img" aria-label="Ikigai Note">
  <rect width="64" height="64" rx="14" fill="#fbf6ea"/>
  <path d="M12 17c0-3 2.2-5.4 5.2-5.1 5.8.5 10.6 2.1 14.8 5.1 4.2-3 9-4.6 14.8-5.1 3-.3 5.2 2.1 5.2 5.1v34.4c0 2.4-1.8 4.4-4.2 4.6-5.9.4-10.6 1.8-15.8 5-5.2-3.2-9.9-4.6-15.8-5-2.4-.2-4.2-2.2-4.2-4.6V17Z" fill="#fff8e8" stroke="#2f2b24" stroke-width="2.5"/>
  <path d="M32 17v43" stroke="#b56f4e" stroke-width="2" stroke-linecap="round"/>
  <path d="M19 24h8M19 32h8M37 25h9M37 33h7" stroke="#59633d" stroke-width="2.6" stroke-linecap="round"/>
  <path d="M42 45l9-3" stroke="#d0a15f" stroke-width="5" stroke-linecap="round"/>
  <circle cx="18" cy="44" r="4" fill="#b43d31"/>
</svg>
